# xmcd
#
# Track frame offsets:
#	150
#	23365
#	53570
#	78800
#	105139
#	128122
#	158459
#	187487
#	211487
#
# Disc length: 3057 seconds
#
# Revision: 1
# Processed by: cddbd v1.5.1PL0 Copyright (c) Steve Scherf et al.
# Submitted via: audiograbber 1.82.02
#
DISCID=610bef09
DTITLE=Van Morrison and John Lee Hooker - Duets
DYEAR=1900
DGENRE=
TTITLE0=Backstabbers
TTITLE1=I Cover The Waterfront
TTITLE2=The Healing Game
TTITLE3=Don`t Look Back
TTITLE4=Travellin` Blues
TTITLE5=Rainy Day
TTITLE6=Medley: Serves Me Right To Suffer/Syndicator
TTITLE7=Gloria
TTITLE8=Wasted Years
EXTD=
EXTT0=05:09
EXTT1=06:42
EXTT2=05:36
EXTT3=05:51
EXTT4=05:06
EXTT5=06:44
EXTT6=06:27
EXTT7=05:20
EXTT8=03:57
PLAYORDER=
